<?xml version="1.0" standalone="no"?>
<!DOCTYPE svg PUBLIC "-//W3C//DTD SVG 20010904//EN"
 "http://www.w3.org/TR/2001/REC-SVG-20010904/DTD/svg10.dtd">
<svg version="1.0" xmlns="http://www.w3.org/2000/svg"
 width="1142.000000pt" height="1280.000000pt" viewBox="0 0 1142.000000 1280.000000"
 preserveAspectRatio="xMidYMid meet">
<g transform="translate(0.000000,1280.000000) scale(0.100000,-0.100000)"
fill="#000000" stroke="none">
<path d="M3088 12785 c-3 -4 -1845 -657 -3021 -1072 -36 -13 -47 -22 -44 -34
3 -10 88 -165 190 -346 235 -418 223 -393 198 -393 -11 0 -77 13 -147 30 -71
16 -130 27 -132 25 -3 -2 152 -213 344 -467 192 -255 443 -587 557 -739 l208
-276 14 -369 c8 -203 19 -479 25 -614 5 -135 16 -429 25 -655 8 -225 19 -518
25 -650 6 -132 19 -476 30 -765 11 -289 24 -635 30 -770 6 -135 17 -423 25
-640 8 -217 20 -514 26 -660 6 -146 18 -473 28 -727 9 -254 19 -464 21 -467 5
-4 465 -154 3595 -1166 836 -270 1644 -531 1796 -581 161 -52 279 -95 282
-103 4 -9 14 -12 26 -9 14 3 446 -209 1340 -658 726 -365 1323 -661 1326 -657
4 3 69 186 145 405 76 219 292 839 479 1377 188 539 338 983 334 986 -5 4
-226 117 -492 251 l-484 244 7 290 c4 160 11 459 16 665 11 430 25 1010 40
1615 6 231 15 593 20 805 5 212 19 756 30 1210 41 1683 39 1643 59 1665 10 11
209 238 442 505 233 267 538 615 677 773 140 159 252 290 249 293 -2 3 -209
-77 -458 -177 -250 -100 -464 -184 -476 -187 -16 -3 -23 0 -23 10 0 8 81 230
180 494 99 263 176 482 172 485 -4 4 -59 16 -122 28 -63 12 -198 38 -300 57
-895 170 -829 158 -1660 315 -830 157 -948 179 -1210 229 -733 140 -1552 292
-2075 386 -19 3 -25 2 -17 -4 10 -6 8 -21 -8 -68 -11 -32 -20 -65 -20 -73 0
-8 -13 -50 -29 -95 -39 -109 -127 -380 -141 -436 -6 -25 -19 -67 -30 -95 -10
-27 -33 -97 -50 -155 -18 -58 -44 -136 -57 -175 -14 -38 -29 -86 -33 -105 -4
-19 -28 -96 -52 -170 -25 -74 -60 -182 -78 -240 -18 -58 -46 -148 -63 -200
-16 -52 -38 -117 -48 -145 -32 -88 -34 -107 -13 -122 23 -17 22 -17 -216 28
-85 16 -163 28 -173 26 -15 -2 -86 109 -329 513 -825 1370 -940 1560 -947
1560 -4 0 -10 -2 -13 -5z m2377 -2329 c1503 -327 1788 -392 1780 -406 -3 -4
-35 -20 -72 -35 -60 -23 -229 -93 -318 -130 -16 -7 -102 -43 -190 -80 -88 -36
-230 -96 -315 -132 -179 -75 -204 -86 -245 -102 -28 -12 -31 -10 -76 36 l-47
49 -219 48 c-644 143 -1386 315 -1395 324 -9 9 7 636 18 653 3 5 15 7 27 4 12
-3 486 -106 1052 -229z"/>
</g>
</svg>
