<?xml version="1.0" standalone="no"?>
<!DOCTYPE svg PUBLIC "-//W3C//DTD SVG 20010904//EN"
 "http://www.w3.org/TR/2001/REC-SVG-20010904/DTD/svg10.dtd">
<svg version="1.0" xmlns="http://www.w3.org/2000/svg"
 width="1280.000000pt" height="942.000000pt" viewBox="0 0 1280.000000 942.000000"
 preserveAspectRatio="xMidYMid meet">
<g transform="translate(0.000000,942.000000) scale(0.100000,-0.100000)"
fill="#000000" stroke="none">
<path d="M10798 9379 c-146 -124 -380 -606 -474 -975 -24 -92 -28 -129 -28
-244 0 -107 3 -143 17 -172 22 -49 70 -102 124 -139 l43 -30 0 -209 c0 -118
-4 -211 -9 -215 -5 -3 -160 71 -343 164 -480 245 -836 406 -1223 554 -1200
458 -2306 596 -3425 426 -928 -141 -1898 -507 -2874 -1087 -66 -39 -124 -68
-128 -66 -4 3 -8 54 -8 113 l0 108 51 33 c159 103 181 305 70 652 -72 223
-210 516 -328 696 -63 96 -162 202 -189 202 -72 0 -197 -168 -328 -440 -163
-340 -254 -655 -244 -850 7 -130 45 -202 146 -272 l42 -29 0 -3139 c-1 -2892
1 -3141 16 -3179 21 -52 94 -118 148 -132 47 -13 319 -16 355 -5 l24 8 -6 132
c-3 72 -15 210 -26 306 -12 96 -25 274 -31 395 -6 135 -10 1254 -10 2886 0
2462 1 2667 16 2673 31 12 208 26 216 18 5 -5 7 -1286 5 -2848 -3 -3014 -2
-2901 -47 -3234 -6 -41 -13 -128 -17 -193 l-6 -118 29 11 c42 16 81 57 99 104
14 37 16 232 18 1814 l2 1772 3994 0 c2196 0 3997 -3 4003 -6 6 -4 9 -594 7
-1663 -2 -1638 -2 -1656 18 -1701 25 -56 89 -115 140 -129 47 -13 342 -14 363
-1 22 14 18 240 -9 473 -40 349 -42 543 -39 3287 l3 2634 40 7 c22 4 74 8 115
10 l75 4 3 -2615 c3 -2630 -1 -2988 -33 -3275 -36 -325 -41 -495 -13 -495 24
0 70 45 93 91 l25 48 0 3145 0 3144 49 32 c93 59 131 132 138 265 13 242 -164
728 -394 1080 -64 97 -171 215 -196 215 -6 0 -33 -18 -59 -41z"/>
</g>
</svg>
